<?xml version="1.0" encoding="utf-8"?>
<!-- Generator: Adobe Illustrator 16.0.0, SVG Export Plug-In . SVG Version: 6.00 Build 0)  -->
<!DOCTYPE svg PUBLIC "-//W3C//DTD SVG 1.1//EN" "http://www.w3.org/Graphics/SVG/1.1/DTD/svg11.dtd">
<svg version="1.1" xmlns="http://www.w3.org/2000/svg" xmlns:xlink="http://www.w3.org/1999/xlink" x="0px" y="0px" width="550px"
	 height="600px" viewBox="0 0 550 600" enable-background="new 0 0 550 600" xml:space="preserve">
<g id="Layer_1" display="none">
	<rect x="0.343" y="0" display="inline" fill="#3A4963" width="550" height="600"/>
	<g display="inline">
		<g>
			<g>
				<g>
					<path fill-rule="evenodd" clip-rule="evenodd" fill="#B1A360" d="M278.481,299.162c-0.074-0.262-0.145-0.395-0.145-0.527
						c0.03-5.254-0.031-10.51,0.146-15.759c0.114-3.369,0.263-6.717-0.452-10.035c-1.393-6.469-5.35-11.137-10.576-14.872
						c-4.772-3.406-10.191-5.523-15.549-7.799c-6.489-2.754-12.987-5.521-19.303-8.643c-7.158-3.539-12.963-8.723-16.16-16.202
						c-6.009-14.058-3.254-28.472,9.174-38.809c4.95-4.119,10.632-6.861,16.887-8.407c0.219-0.055,0.441-0.098,0.661-0.13
						c0.069-0.009,0.146,0.038,0.354,0.1c0,1.725,0.031,3.492-0.036,5.256c-0.008,0.222-0.508,0.55-0.822,0.611
						c-2.588,0.512-5.238,0.777-7.768,1.488c-6.221,1.749-9.5,6.391-10.936,12.321c-1.274,5.252-1.527,10.638,0.189,15.892
						c1.713,5.237,5.451,8.885,9.852,11.927c5.006,3.464,10.627,5.7,16.23,7.961c6.613,2.668,13.248,5.292,19.469,8.828
						c7.625,4.334,13.848,10.1,16.563,18.616c4.374,13.711,2.154,26.382-7.161,37.593
						C278.944,298.76,278.745,298.912,278.481,299.162z"/>
					<path fill-rule="evenodd" clip-rule="evenodd" fill="#B1A360" d="M281.294,235.94c1.926-2.259,3.76-4.465,5.65-6.623
						c8.686-9.925,17.313-19.902,26.115-29.725c4.237-4.729,8.877-9.089,14.171-12.665c4.612-3.113,9.726-4.804,15.27-5.119
						c2.565-0.146,5.135-0.168,7.701-0.201c0.653-0.008,1.31,0.153,1.956,0.501c-1.441,0.199-2.893,0.346-4.325,0.607
						c-7.142,1.305-13.183,4.866-18.79,9.288c-6.077,4.791-11.445,10.328-16.676,15.996c-6.637,7.194-13.178,14.479-19.795,21.689
						c-0.684,0.745-0.723,1.268-0.227,2.138c8.311,14.565,16.531,29.187,25.859,43.14c5.764,8.619,11.865,16.982,19.345,24.234
						c4.806,4.66,9.997,8.807,16.35,11.172c1.958,0.729,4.086,1,6.138,1.479c0.349,0.082,0.697,0.156,1.078,0.508
						c-0.242,0.111-0.475,0.27-0.729,0.33c-6,1.401-12.071,1.985-18.21,1.278c-4.729-0.544-8.699-2.896-12.407-5.704
						c-6.06-4.592-11.021-10.264-15.265-16.496c-4.949-7.271-9.615-14.738-14.248-22.216c-0.737-1.189-0.707-2.881-0.936-4.355
						c-1.703-11.008-6.935-20.001-15.435-27.138C283.077,237.378,282.248,236.72,281.294,235.94z"/>
					<path fill-rule="evenodd" clip-rule="evenodd" fill="#B1A360" d="M267.126,227.829c-0.383-0.1-0.604-0.132-0.803-0.215
						c-3.584-1.495-7.16-3.011-10.754-4.485c-0.611-0.251-0.856-0.565-0.856-1.249c0.021-14.739,0.017-29.479,0.021-44.218
						c0-0.255,0.041-0.51,0.063-0.784c2.29,0,4.507-0.046,6.721,0.015c1.507,0.043,3.009,0.306,4.515,0.334
						c0.939,0.017,1.111,0.398,1.107,1.231c-0.025,7.597-0.014,15.193-0.014,22.79c0,8.352,0,16.704,0,25.057
						C267.126,226.755,267.126,227.203,267.126,227.829z"/>
					<path fill-rule="evenodd" clip-rule="evenodd" fill="#B1A360" d="M266.894,313.277c-4.098,0-8.051,0-12.086,0
						c0-16.365,0-32.666,0-49.13c2.969,1.383,5.689,2.941,8.059,5.08c2.762,2.49,4.131,5.551,4.115,9.311
						c-0.048,11.296-0.017,22.595-0.02,33.892C266.962,312.686,266.921,312.939,266.894,313.277z"/>
					<path fill-rule="evenodd" clip-rule="evenodd" fill="#B1A360" d="M209.569,304.973c1.43-3.436,2.829-6.799,4.279-10.279
						c0.518,0.289,0.938,0.521,1.355,0.76c8.021,4.561,16.449,8.082,25.535,9.9c0.074,0.016,0.145,0.047,0.219,0.061
						c2.57,0.484,2.57,0.484,2.57,3.15c0,1.508,0,3.016,0,4.699C231.451,313.482,220.271,310.502,209.569,304.973z"/>
					<path fill-rule="evenodd" clip-rule="evenodd" fill="#B1A360" d="M288.201,193.388c-2.153-0.871-4.171-1.687-6.19-2.503
						c-1.184-0.479-2.84-0.647-3.422-1.526c-0.619-0.933-0.244-2.54-0.258-3.854c-0.02-2.297-0.004-4.594-0.004-7.063
						c4.646,0.976,8.982,2.366,13.314,4.182C290.484,186.241,289.356,189.773,288.201,193.388z"/>
				</g>
			</g>
			<g>
				<rect x="25.343" y="342.641" fill="none" width="500" height="12.045"/>
				
					<text transform="matrix(1 0 0 1 168.168 351.1006)" fill="#B1A360" font-family="'SakkalMajalla'" font-size="15" letter-spacing="7">SOLEHA &amp; KAMARUL</text>
			</g>
			<rect x="25.343" y="371.686" fill-rule="evenodd" clip-rule="evenodd" fill="none" width="500" height="10.955"/>
			
				<text transform="matrix(1 0 0 1 214.8223 380.1445)" fill="#B1A360" font-family="'SakkalMajalla'" font-size="15" letter-spacing="7">11.04.2021</text>
			<rect x="25.343" y="398.686" fill-rule="evenodd" clip-rule="evenodd" fill="none" width="500" height="11"/>
			
				<text transform="matrix(1 0 0 1 185.2515 406.5801)" fill="#B1A360" font-family="'SakkalMajalla'" font-size="14" letter-spacing="3">118 Residence, Kg Kiulap</text>
			<rect x="25.343" y="123.861" fill-rule="evenodd" clip-rule="evenodd" fill="none" width="498.425" height="65.496"/>
			
				<text transform="matrix(1 0 0 1 148.6328 136.8325)" fill="#B1A360" font-family="'SakkalMajalla'" font-size="23" letter-spacing="4">MAJLIS PERKAHWINAN</text>
		</g>
		<g>
			<path fill-rule="evenodd" clip-rule="evenodd" fill="#B1A360" d="M298.5,460.613c0.216,0.197,0.44,0.387,0.644,0.598
				c0.094,0.1,0.145,0.238,0.217,0.359c-0.159,0.242-0.316,0.484-0.476,0.729c-0.063-0.074-0.13-0.148-0.196-0.223
				c-0.438-0.488-0.832-1.025-1.321-1.457c-1.938-1.709-4.166-2.93-6.581-3.83c-2.98-1.109-6.063-1.67-9.244-1.672
				c-0.441-0.002-0.881,0.025-1.365,0.039c0.678,1.703,0.828,3.41,0.686,5.156c0.096,0.01,0.141,0.02,0.186,0.02
				c2.422,0.072,4.797,0.438,7.125,1.107c2.639,0.76,5.131,1.836,7.352,3.479c0.385,0.285,0.724,0.631,1.086,0.949
				c-0.121,0.189-0.243,0.379-0.363,0.568c-0.086-0.053-0.182-0.094-0.256-0.16c-1.029-0.906-2.17-1.646-3.387-2.271
				c-2.92-1.504-6.033-2.355-9.283-2.738c-0.842-0.1-1.693-0.129-2.541-0.191c-0.032,0.121-0.053,0.186-0.064,0.254
				c-0.315,1.838-0.934,3.572-1.801,5.219c-0.326,0.617-0.721,1.199-1.084,1.797c-0.189-0.121-0.377-0.242-0.566-0.365
				c0.18-0.33,0.355-0.664,0.541-0.992c1.411-2.527,2.387-5.188,2.316-8.125c-0.084-3.521-1.604-6.178-4.852-7.725
				c-0.76-0.363-1.563-0.596-2.299-0.719c0.434,0.473,0.979,0.938,1.359,1.51c0.951,1.434,0.992,3.043,0.68,4.672
				c-0.535,2.797-1.957,5.16-3.682,7.367c-0.041,0.051-0.128,0.064-0.191,0.096c-0.523-0.334-1.047-0.67-1.571-1.004
				c-0.063-0.094-0.153-0.178-0.187-0.281c-0.381-1.199-0.377-2.385,0.133-3.551c0.049-0.111,0.1-0.219,0.188-0.416
				c-0.125,0.098-0.181,0.135-0.229,0.176c-1.012,0.883-1.842,1.904-2.4,3.133c-0.701,1.535-0.885,3.141-0.572,4.799
				c0.357,1.9,1.286,3.516,2.518,4.973c0.393,0.465,0.814,0.906,1.223,1.359c-0.125,0.182-0.25,0.361-0.375,0.541
				c-0.079-0.039-0.174-0.061-0.234-0.117c-0.988-0.959-1.889-1.992-2.57-3.197c-0.281-0.496-0.533-1.008-0.813-1.543
				c-0.163,0.115-0.313,0.217-0.457,0.324c-1.477,1.094-3.042,2.043-4.714,2.801c-2.122,0.961-4.315,1.662-6.671,1.631
				c-2.438-0.033-4.477-0.811-5.584-3.309c0,0.234,0.005,0.381-0.004,0.527c-0.012,0.209-0.032,0.418-0.05,0.625
				c-0.22-0.141-0.44-0.281-0.661-0.422c0.014-0.734-0.043-1.479,0.053-2.199c0.453-3.445,1.792-6.523,3.914-9.27
				c2.504-3.246,5.572-5.832,9.168-7.787c1.936-1.055,3.982-1.834,6.175-2.168c2.124-0.322,4.247-0.445,6.358,0.098
				c2.529,0.65,4.545,2,5.871,4.291c0.122,0.213,0.262,0.27,0.489,0.271c1.071,0.016,2.142,0.033,3.21,0.08
				c2.389,0.104,4.703,0.613,6.967,1.365c0.6,0.199,1.173,0.473,1.76,0.713c0.766,0.51,1.525,1.029,2.299,1.527
				c1.231,0.791,2.471,1.568,3.709,2.348C298.216,460.467,298.36,460.537,298.5,460.613z M252.392,472.623
				c0.102-1.801,0.657-3.42,1.445-4.965c1.495-2.938,3.609-5.385,6.088-7.523c2.509-2.166,5.281-3.91,8.428-5.008
				c1.447-0.506,2.933-0.846,4.471-0.875c0.503-0.012,1.008,0.029,1.509,0.047c0.056-1.037-0.752-2.451-1.767-3.098
				c-1.415-0.9-2.982-1.008-4.576-0.781c-1.688,0.24-3.305,0.77-4.873,1.441c-1.973,0.844-3.785,1.959-5.473,3.279
				c-3.432,2.684-6.119,5.947-7.76,10.018c-0.592,1.467-0.855,2.979-0.45,4.535C249.832,471.219,250.854,472.154,252.392,472.623z
				 M253.138,472.848c0.628,0.02,1.18,0.07,1.729,0.049c1.717-0.061,3.347-0.518,4.935-1.148c2.159-0.859,4.129-2.043,5.981-3.438
				c0.169-0.127,0.215-0.244,0.169-0.463c-0.14-0.643-0.306-1.289-0.345-1.943c-0.155-2.693,0.822-4.965,2.682-6.885
				c1.646-1.699,3.707-2.717,5.865-3.572c0.094-0.035,0.164-0.125,0.244-0.191c-0.094-0.061-0.185-0.158-0.283-0.172
				c-0.981-0.146-1.959-0.09-2.928,0.086c-3.264,0.586-6.123,2.076-8.779,3.994c-2.682,1.938-5,4.236-6.824,7.012
				c-1.043,1.586-1.87,3.268-2.246,5.143C253.241,471.797,253.208,472.291,253.138,472.848z M274.356,456.248
				c-1.568,0.57-2.856,1.334-3.759,2.633c-0.688,0.994-0.868,2.096-0.585,3.268c0.064,0.27,0.176,0.529,0.268,0.803
				c0.432-0.273,0.822-0.498,1.185-0.76c0.22-0.156,0.44-0.338,0.586-0.559c0.728-1.102,1.341-2.266,1.772-3.514
				C274.024,457.537,274.163,456.934,274.356,456.248z"/>
			<path fill-rule="evenodd" clip-rule="evenodd" fill="#B1A360" d="M298.885,462.299c0.159-0.244,0.316-0.486,0.476-0.729
				c0.066,0.031,0.152,0.045,0.197,0.098c1.313,1.482,2.32,3.143,2.769,5.086c0.71,3.1-0.063,5.834-2.177,8.186
				c-1.367,1.521-3.065,2.572-4.937,3.367c-1.854,0.789-3.798,1.275-5.792,1.465c-6.043,0.576-11.705-0.617-16.891-3.85
				c-0.283-0.178-0.557-0.373-0.826-0.574c-0.145-0.109-0.248-0.1-0.395,0.01c-1.51,1.129-3.104,2.127-4.84,2.871
				c-0.919,0.393-1.877,0.684-2.814,1.033c-1.313,0.484-2.678,0.719-4.063,0.824c-2.686,0.205-5.256-0.174-7.564-1.674
				c-1.463-0.951-2.518-2.258-3.214-3.854c-0.04-0.096-0.019-0.221-0.026-0.332c0.141-0.221,0.283-0.441,0.424-0.662
				c0.041,0.064,0.092,0.123,0.117,0.193c0.398,1.088,0.977,2.064,1.787,2.895c1.693,1.73,3.816,2.492,6.18,2.678
				c2.051,0.164,4.045-0.158,6.014-0.736c1.84-0.541,3.564-1.328,5.204-2.307c0.787-0.469,1.54-0.996,2.351-1.523
				c-0.186-0.162-0.32-0.266-0.439-0.385c-0.191-0.191-0.376-0.391-0.561-0.588c0.125-0.18,0.25-0.359,0.375-0.541
				c0.092,0.061,0.19,0.115,0.277,0.184c0.567,0.453,1.105,0.951,1.705,1.357c4.969,3.361,10.477,4.674,16.425,4.273
				c2.018-0.135,3.976-0.564,5.864-1.295c1.75-0.68,3.346-1.605,4.686-2.938c2.893-2.875,3.354-6.639,1.48-10.203
				c-0.053-0.098-0.121-0.189-0.182-0.283c0.063,0.914-0.041,1.762-0.398,2.572c-0.667,1.52-1.877,2.492-3.303,3.223
				c-2.168,1.109-4.512,1.541-6.916,1.697c-2.102,0.137-4.191-0.01-6.268-0.365c-0.473-0.082-0.938-0.223-1.406-0.336
				c-0.576-0.383-1.156-0.764-1.734-1.145c0.771,0.182,1.539,0.385,2.316,0.535c3.947,0.77,7.878,0.902,11.775-0.303
				c1.123-0.348,2.164-0.859,3.119-1.545c0.169-0.123,0.186-0.234,0.054-0.396c-0.331-0.414-0.647-0.838-0.978-1.252
				c-0.162-0.203-0.341-0.396-0.51-0.596c0.12-0.189,0.242-0.379,0.363-0.568c0.102,0.07,0.219,0.127,0.299,0.219
				c0.533,0.6,1.056,1.207,1.584,1.811c1.016-0.885,1.506-2.621,1.063-3.973C299.374,463.369,299.112,462.84,298.885,462.299z"/>
			<path fill-rule="evenodd" clip-rule="evenodd" fill="#B1A360" d="M298.5,460.613c-0.14-0.076-0.284-0.146-0.421-0.232
				c-1.238-0.779-2.478-1.557-3.709-2.348c-0.773-0.498-1.533-1.018-2.299-1.527c0.307,0.109,0.619,0.201,0.916,0.332
				c2.039,0.908,3.839,2.176,5.471,3.686C298.481,460.545,298.487,460.584,298.5,460.613z"/>
			<path fill-rule="evenodd" clip-rule="evenodd" fill="#B1A360" d="M249.212,473.564c-0.141,0.221-0.283,0.441-0.424,0.662
				c-0.04-0.02-0.1-0.031-0.111-0.063c-0.362-0.984-0.605-1.994-0.57-3.053c0.221,0.141,0.441,0.281,0.661,0.422
				c0.046,0.115,0.106,0.227,0.133,0.346c0.112,0.482,0.214,0.965,0.313,1.449C249.228,473.404,249.213,473.484,249.212,473.564z"/>
			<path fill-rule="evenodd" clip-rule="evenodd" fill="#B1A360" d="M274.097,467.176c0.162,0.076,0.328,0.145,0.483,0.23
				c0.724,0.4,1.442,0.805,2.161,1.207c0.195-0.234,0.359-0.436,0.523-0.635c0.189,0.123,0.377,0.244,0.566,0.365
				c-0.09,0.182-0.181,0.361-0.305,0.613c0.986,0.348,1.965,0.691,2.943,1.035c0.578,0.381,1.158,0.762,1.734,1.145
				c-0.098,0-0.204,0.02-0.297-0.002c-2.838-0.646-5.531-1.65-7.992-3.232c-0.065-0.041-0.119-0.1-0.178-0.152
				C273.856,467.559,273.978,467.367,274.097,467.176z"/>
			<path fill-rule="evenodd" clip-rule="evenodd" fill="#B1A360" d="M274.097,467.176c-0.119,0.191-0.24,0.383-0.359,0.574
				c-0.682-0.523-1.395-1.012-2.036-1.582c-0.882-0.783-1.601-1.711-2.089-2.797c-0.041-0.092-0.032-0.209-0.046-0.313
				c0.524,0.334,1.048,0.67,1.571,1.004c-0.068,0.246,0.049,0.42,0.201,0.604c0.73,0.883,1.6,1.609,2.527,2.273
				C273.954,467.002,274.021,467.096,274.097,467.176z"/>
		</g>
	</g>
</g>
<g id="Layer_1_copy">
	<rect fill="#3A4963" width="550" height="600"/>
	<rect x="65.426" y="36.453" fill="none" stroke="#B1A360" stroke-miterlimit="10" width="419.149" height="481.592"/>
	<rect x="65.426" y="83.139" fill="none" stroke="#B1A360" stroke-miterlimit="10" width="419.149" height="481.592"/>
	<rect x="42.244" y="59.205" fill="none" stroke="#B1A360" stroke-miterlimit="10" width="419.149" height="481.592"/>
	<rect x="88.765" y="59.205" fill="none" stroke="#B1A360" stroke-miterlimit="10" width="419.149" height="481.592"/>
	<g>
		<g>
			<rect x="65.426" y="59.205" fill="#CFCBBF" width="419.149" height="481.59"/>
		</g>
		<g>
			<g>
				<g>
					<path fill-rule="evenodd" clip-rule="evenodd" fill="#3A4963" d="M309.937,91.527c0.057,0.888,0.169,1.624,1.048,1.886
						c0.916,0.272,1.596-0.155,2.205-0.759c0.435-0.43,0.841-0.886,1.259-1.332c0.055,0.04,0.108,0.08,0.162,0.119
						c-0.047,0.135-0.168,0.295-0.131,0.401c0.159,0.456,0.285,0.968,0.592,1.305c0.119,0.131,0.791-0.035,1.026-0.259
						c0.486-0.464,0.848-1.059,1.3-1.65c0.309,0.949,1.058,1.455,2.002,1.695c1.02,0.258,1.439-0.183,1.144-1.221
						c-0.405-1.42-0.856-2.828-1.276-4.245c-0.396-1.332-0.39-1.334,0.249-2.818c0.55,0.76,1.041,1.439,1.603,2.219
						c-0.419,0.09-0.648,0.139-0.971,0.208c0.336,0.983,0.687,1.924,0.977,2.88c0.207,0.68,0.4,1.375,0.484,2.076
						c0.099,0.82-0.072,1.637-0.849,2.087c-0.801,0.462-1.674,0.547-2.48-0.035c-0.395-0.284-0.741-0.632-1.107-0.95
						c-1.646,1.714-2.667,2.145-3.724,0.647c-0.868,0.409-1.683,0.998-2.575,1.162c-1.252,0.231-1.38-0.958-1.687-1.872
						c-1.658,0.392-3.274,0.787-4.896,1.155c-6.922,1.572-13.882,2.925-20.981,3.4c-3.854,0.258-7.713,0.457-11.571,0.678
						c-1.554,0.089-3.116,0.298-4.665,0.226c-5.957-0.278-11.954-0.25-17.788-1.74c-1.745-0.445-3.447-1.058-5.168-1.599
						c-0.283-0.088-0.559-0.197-0.835-0.295c-0.045,0.081-0.081,0.124-0.094,0.172c-0.111,0.448-0.22,0.896-0.328,1.346
						c-0.403-0.255-0.901-0.432-1.183-0.784c-0.329-0.411-0.521-0.955-0.679-1.472c-0.487-1.586-1.564-2.196-3.138-1.539
						c-1.535,0.643-3.022,1.419-4.487,2.215c-1.01,0.548-1.948,1.228-2.915,1.853c-0.868,0.561-1.834,0.752-2.707,0.202
						c-0.926-0.582-1.115-1.571-0.9-2.626c0.08-0.395,0.148-0.791,0.231-1.238c-0.459,0.182-0.824,0.405-1.214,0.468
						c-1.406,0.227-2.435-0.507-2.446-1.948c-0.008-1.035,0.209-2.13,0.594-3.091c0.43-1.071,1.162-2.022,1.761-3.025
						c0.091,0.039,0.18,0.079,0.271,0.117c-0.086,0.292-0.139,0.601-0.266,0.873c-0.479,1.016-1.006,2.009-1.467,3.033
						c-0.199,0.441-0.355,0.929-0.4,1.409c-0.089,0.938,0.656,1.522,1.536,1.186c0.865-0.332,1.705-0.75,2.523-1.188
						c2.171-1.162,4.326-2.355,6.5-3.543c-0.033-0.181-0.028-0.326-0.085-0.44c-1.052-2.052-0.368-3.82,0.897-5.487
						c0.164-0.214,0.381-0.4,0.607-0.548c0.636-0.417,1.17-0.27,1.579,0.366c0.488,0.759,0.935,1.56,1.519,2.237
						c1.272,1.473,3.04,1.975,4.877,2.301c6.12,1.087,12.167,0.637,18.166-0.888c2.7-0.686,5.418-1.304,7.941-1.91
						c-0.148-0.744-0.28-1.403-0.453-2.264c1.319,0.494,2.406,0.901,3.729,1.397c-0.204-2.629-0.442-5.07-0.551-7.517
						c-0.028-0.641,0.344-1.299,0.532-1.948c0.105,0.007,0.21,0.017,0.317,0.025c0.395,1.312,0.791,2.623,1.209,4.007
						c-0.275,0.016-0.503,0.029-0.741,0.043c-0.017,0.039-0.059,0.087-0.058,0.135c0.056,1.617,0.093,3.235,0.198,4.85
						c0.014,0.218,0.333,0.536,0.568,0.601c1.21,0.337,2.439,0.607,3.659,0.9c-0.278,1.351-0.605,1.625-1.773,1.233
						c-2.928-0.985-5.809-0.432-8.673,0.219c-3.817,0.868-7.615,1.817-11.412,2.769c-0.34,0.084-0.746,0.387-0.887,0.697
						c-0.456,0.99-0.851,2.016-1.177,3.056c-0.322,1.03,0.396,1.817,1.468,1.614c0.496-0.093,1.007-0.307,1.426-0.591
						c3.238-2.194,6.639-4.054,10.423-5.136c0.476-0.136,0.663-0.409,0.669-0.88c0.005-0.38,0.057-0.759,0.092-1.199
						c0.367,0,0.706,0,1.044,0c-0.047,1.963-0.95,3.222-2.784,3.775c-2.672,0.804-5.155,1.965-7.41,3.631
						c-1.152,0.852-2.429,1.496-3.933,1.462c-1.201-0.027-1.932-0.805-1.694-1.987c0.288-1.412,0.72-2.794,1.1-4.229
						c-0.307,0-0.701-0.025-1.09,0.005c-1.641,0.129-3.277,0.347-4.919,0.401c-2.677,0.088-5.28-0.4-7.803-1.295
						c-1.698-0.603-2.641-1.977-3.468-3.463c-0.728-1.306-1.259-1.347-2.209-0.181c-1.024,1.258-0.889,2.511,0.429,3.469
						c0.483,0.351,1.041,0.603,1.579,0.868c1.096,0.541,1.25,0.969,0.666,2.163c-0.387-0.162-0.794-0.3-1.172-0.495
						c-1.017-0.523-2.056-0.455-3.008,0.045c-1.841,0.968-3.646,2.008-5.436,3.069c-0.8,0.474-1.147,2.325-0.695,3.157
						c0.289,0.531,0.745,0.545,1.202,0.369c0.635-0.246,1.258-0.54,1.854-0.87c1.534-0.85,3.049-1.736,4.575-2.601
						c1.703-0.967,3.384-2.061,5.471-0.935c0.107-0.301,0.176-0.495,0.254-0.708c0.086,0.029,0.18,0.035,0.227,0.084
						c0.211,0.216,0.458,0.417,0.596,0.676c0.828,1.543,2.234,2.214,3.814,2.756c3.886,1.334,7.846,2.25,11.965,2.344
						c5.344,0.122,10.696,0.424,16.033,0.259c10.757-0.33,21.412-1.652,31.917-4.043C307.058,92.364,308.44,91.934,309.937,91.527z"
						/>
					<path fill-rule="evenodd" clip-rule="evenodd" fill="#3A4963" d="M283.35,83.737c-0.779-0.663-1.474-1.285-2.201-1.863
						c-0.656-0.52-1.096-1.113-0.77-1.975c0.335-0.881,1.031-1.368,1.963-1.367c0.899,0.001,1.811,0.063,2.698,0.215
						c2.156,0.372,4.302,0.81,6.452,1.228c0.376,0.074,0.877-0.012,0.889,0.61c0.011,0.61-0.201,1.027-0.834,1.244
						c-1.655,0.564-3.297,1.176-4.944,1.771c-0.123,0.046-0.24,0.105-0.356,0.157c0.204,0.857,0.445,1.667,0.581,2.495
						c0.149,0.938-0.168,1.164-1.045,0.857c-0.936-0.327-1.558-0.901-1.572-2.065c-0.417,0.128-0.775,0.224-1.123,0.351
						c-2.203,0.801-4.013,2.218-5.791,3.692c-2.515,2.085-5.143,4.015-8.035,5.555c-0.552,0.294-1.136,0.554-1.733,0.738
						c-1.687,0.519-2.796-0.21-3.043-1.955c-0.183-1.284,0.211-2.902,0.942-3.664c-0.076,0.74-0.187,1.406-0.203,2.074
						c-0.04,1.643,0.825,2.361,2.405,1.874c1.061-0.328,2.137-0.763,3.048-1.381c2.357-1.601,4.598-3.371,6.939-4.997
						c1.568-1.09,3.228-2.051,4.849-3.067C282.737,84.091,283.018,83.934,283.35,83.737z M289.532,81.254
						c-2.749-0.778-5.479-1.266-8.515-1.061c0.342,0.382,0.513,0.66,0.758,0.833c0.936,0.657,1.895,1.284,2.853,1.911
						c0.095,0.062,0.266,0.087,0.371,0.048C286.514,82.416,288.021,81.833,289.532,81.254z"/>
					<path fill-rule="evenodd" clip-rule="evenodd" fill="#3A4963" d="M306.437,87.884c-0.555,0.845-1.06,1.682-1.632,2.47
						c-0.553,0.758-1.357,1.024-2.261,0.831c-0.871-0.187-1.304-0.874-1.567-1.651c-0.392-1.144-0.316-2.314-0.114-3.489
						c0.125-0.725,0.182-1.461,0.269-2.194c-0.129-0.04-0.259-0.08-0.387-0.12c-0.214,0.312-0.516,0.596-0.619,0.939
						c-0.265,0.888-0.458,1.799-0.647,2.707c-0.29,1.379-0.352,2.842-1.572,3.848c-0.11,0.091-0.064,0.36-0.117,0.538
						c-0.156,0.521-0.325,1.04-0.488,1.558c-0.11-0.029-0.22-0.059-0.33-0.089c0.094-0.481,0.208-0.96,0.272-1.446
						c0.033-0.249,0.083-0.627-0.051-0.746c-0.813-0.722-0.994-1.676-1.092-2.669c-0.097-1.008-0.167-2.019-0.234-3.029
						c-0.009-0.14,0.064-0.286,0.24-0.424c0.071,0.872,0.102,1.751,0.23,2.615c0.093,0.613,0.247,1.24,0.502,1.802
						c0.379,0.833,1.057,0.863,1.421,0.032c0.438-0.993,0.672-2.074,1.04-3.101c0.447-1.252,0.937-2.49,1.424-3.727
						c0.131-0.334,0.318-0.645,0.48-0.966c0.163,0.099,0.326,0.199,0.486,0.298c0.05,0.381,0.173,0.77,0.136,1.142
						c-0.119,1.143-0.385,2.277-0.431,3.421c-0.028,0.738,0.119,1.529,0.389,2.219c0.256,0.656,0.81,1.367,1.598,1.155
						c0.674-0.181,1.468-0.639,1.799-1.211c0.438-0.76,0.633-1.748,0.65-2.643c0.025-1.222-0.155-2.461-0.368-3.673
						c-0.13-0.736,0.05-1.275,0.688-1.94c0.204,1.192,0.428,2.242,0.551,3.303c0.11,0.951,0.099,1.916,0.163,2.874
						c0.086,1.33,1.614,2.56,2.804,2.273c0.942-0.227,1.231-0.872,0.89-1.787c-0.518-1.381-0.959-2.79-1.472-4.172
						c-0.298-0.807-0.228-1.531,0.225-2.258c0.243-0.388,0.409-0.827,0.63-1.287c2.352,0.941,3.889,2.53,4.271,5.019
						c0.442,2.893,0.007,5.529-2.768,7.277c0.156-0.289,0.327-0.57,0.466-0.867c0.465-0.99,0.946-1.974,1.371-2.981
						c1.237-2.923-0.806-5.748-3.238-7.058c-0.035-0.018-0.1,0.019-0.33,0.07c0.284,0.551,0.547,1.06,0.808,1.568
						c-0.057,0-0.114,0.001-0.171,0.002c0,0.339-0.081,0.703,0.015,1.012c0.283,0.913,0.652,1.801,0.96,2.708
						c0.387,1.137,0.203,2.208-0.427,3.223c-0.494,0.796-1.204,1.18-2.129,1.134c-0.923-0.047-1.501-0.612-1.893-1.382
						C306.681,88.63,306.562,88.21,306.437,87.884z"/>
					<path fill-rule="evenodd" clip-rule="evenodd" fill="#3A4963" d="M281.179,86.917c-0.499,1.395-0.959,2.681-1.419,3.968
						c0.096,0.057,0.189,0.113,0.284,0.168c0.655-0.528,1.525-0.817,1.787-1.787c0.035-0.132,0.083-0.262,0.144-0.383
						c0.248-0.503,0.5-1.048,1.216-0.764c0.482,0.191,0.875,1.237,0.565,1.641c-0.189,0.246-0.669,0.466-0.951,0.401
						c-0.55-0.128-0.861,0.1-1.222,0.412c-0.454,0.396-0.966,0.726-1.405,1.136c-0.162,0.15-0.316,0.512-0.241,0.659
						c0.107,0.217,0.453,0.486,0.651,0.454c0.582-0.098,1.194-0.244,1.704-0.531c1.79-1.008,3.509-2.146,5.321-3.111
						c1.417-0.754,2.929-1.333,4.407-1.972c1.175-0.509,1.319-0.692,1.196-1.993c-0.258-2.729-0.543-5.454-0.821-8.179
						c-0.017-0.163-0.01-0.349-0.088-0.481c-0.451-0.765-0.069-1.28,0.622-1.86c0.438,1.087,0.86,2.127,1.307,3.23
						c-0.282,0.064-0.504,0.114-0.782,0.177c0.147,2.193,0.286,4.375,0.442,6.556c0.161,2.229-0.3,3.059-2.339,3.992
						c-2.034,0.931-4.216,1.539-6.002,2.995c-0.95,0.775-1.975,1.498-3.062,2.058c-1.814,0.934-2.508,0.641-3.339-1.188
						c-1.808,0.816-3.445,2.031-5.392,2.525c-0.037-0.066-0.074-0.134-0.112-0.201c0.157-0.121,0.303-0.262,0.474-0.358
						c1.484-0.827,2.967-1.656,4.463-2.46c0.415-0.224,0.642-0.459,0.664-0.993c0.05-1.257,0.477-2.414,1.236-3.428
						C280.668,87.361,280.916,87.173,281.179,86.917z"/>
					<path fill-rule="evenodd" clip-rule="evenodd" fill="#3A4963" d="M265.229,72.521c0.089,0.884-0.222,1.261-0.955,1.496
						c-7.203,2.302-14.302,4.877-21.117,8.217c0.024-0.977,0.324-1.443,1.133-1.82c6.119-2.851,12.507-4.99,18.878-7.175
						C263.835,73.009,264.5,72.774,265.229,72.521z"/>
					<path fill-rule="evenodd" clip-rule="evenodd" fill="#3A4963" d="M267.767,81.645c-0.916-0.258-1.78-0.492-2.638-0.748
						c-0.6-0.178-1.131-0.205-1.378,0.516c-0.651-0.113-1.265-0.207-1.874-0.328c-0.339-0.068-0.824,0.074-0.848-0.524
						c-0.019-0.525,0.059-1.068,0.634-1.186c0.873-0.18,1.771-0.317,2.656-0.306c0.693,0.009,1.396,0.229,2.073,0.429
						C267.837,79.925,267.837,79.953,267.767,81.645z"/>
					<path fill-rule="evenodd" clip-rule="evenodd" fill="#3A4963" d="M269.753,76.742c-0.333-0.129-0.503-0.197-0.772-0.301
						c0.093,1.454,0.181,2.835,0.269,4.218c0.026,0.41,0.064,0.819,0.08,1.229c0.029,0.807,0.024,0.807-0.954,0.885
						c-0.037-0.584-0.061-1.171-0.113-1.756c-0.194-2.289-0.361-4.582-0.613-6.866c-0.084-0.762,0.263-1.211,0.774-1.788
						C268.872,73.838,269.288,75.207,269.753,76.742z"/>
					<path fill-rule="evenodd" clip-rule="evenodd" fill="#3A4963" d="M298.305,79.832c-0.346-0.048-0.553-0.077-0.811-0.113
						c0.136,2.604,0.27,5.167,0.403,7.732c0.026,0.519,0.095,1.041,0.063,1.556c-0.013,0.208-0.238,0.402-0.368,0.603
						c-0.071-0.035-0.143-0.07-0.214-0.105c-0.128-1.709-0.236-3.421-0.388-5.13c-0.188-2.124-0.45-4.242-0.597-6.368
						c-0.04-0.574,0.224-1.168,0.348-1.753c0.088,0.003,0.174,0.007,0.261,0.011C297.422,77.411,297.84,78.56,298.305,79.832z"/>
					<path fill-rule="evenodd" clip-rule="evenodd" fill="#3A4963" d="M279.494,77.345c0.225-0.265,0.396-0.644,0.682-0.774
						c1.81-0.828,3.633-1.628,5.475-2.38c0.65-0.266,0.868,0.006,0.727,0.725c-0.058,0.29-0.176,0.66-0.054,0.871
						c0.177,0.302,0.556,0.694,0.834,0.683c0.438-0.018,0.757-0.393,0.615-0.951c-0.144-0.569-0.257-1.146-0.385-1.72
						c0.106-0.038,0.212-0.075,0.317-0.112c0.126,0.306,0.27,0.605,0.372,0.917c0.136,0.412,0.185,0.862,0.379,1.241
						c0.104,0.202,0.435,0.288,0.799,0.507c-0.192-0.778-0.322-1.307-0.452-1.834c0.123-0.032,0.248-0.063,0.371-0.094
						c0.146,0.649,0.428,1.304,0.406,1.948c-0.028,0.876-0.472,1.013-1.182,0.491c-0.11-0.081-0.214-0.17-0.371-0.296
						c-0.104,0.116-0.183,0.273-0.306,0.332c-0.367,0.173-0.787,0.473-1.119,0.403c-0.223-0.047-0.403-0.626-0.468-0.991
						c-0.081-0.443-0.021-0.91-0.021-1.398c-2.558,0.083-4.465,1.447-6.442,2.637C279.612,77.48,279.554,77.413,279.494,77.345z"/>
					<path fill-rule="evenodd" clip-rule="evenodd" fill="#3A4963" d="M300.432,76.678c0.478,0.571,0.975,1.074,1.357,1.653
						c0.317,0.48,0.048,0.982-0.521,0.961c-1.121-0.04-1.29,0.945-2.067,1.608c2.538,0.124,4.121-1.925,6.256-2.216
						c0.04,0.131,0.079,0.262,0.119,0.392c-0.37,0.095-0.766,0.135-1.105,0.295c-0.715,0.338-1.388,0.768-2.103,1.105
						c-0.812,0.384-1.64,0.736-2.481,1.042c-0.203,0.074-0.621-0.009-0.711-0.158c-0.122-0.21-0.047-0.549-0.026-0.831
						c0.008-0.097,0.084-0.219,0.166-0.276c1.17-0.808,0.907-1.995,0.84-3.133c-0.004-0.053-0.002-0.113,0.021-0.16
						C300.195,76.915,300.245,76.881,300.432,76.678z"/>
					<path fill-rule="evenodd" clip-rule="evenodd" fill="#3A4963" d="M276.563,75.913c0.665-0.392,1.328-0.784,1.991-1.176
						c-0.012-0.086-0.022-0.172-0.033-0.257c-0.723-0.172-1.445-0.343-2.174-0.516c0.125-1.099,0.602-1.467,1.678-1.252
						c0.054,0.011,0.112,0.008,0.161,0.03c0.527,0.24,1.05,0.482,1.576,0.726c-0.289,0.533-0.462,1.209-0.896,1.564
						c-0.62,0.506-1.433,0.776-2.164,1.146C276.655,76.089,276.611,76.001,276.563,75.913z"/>
					<path fill-rule="evenodd" clip-rule="evenodd" fill="#3A4963" d="M294.738,92.647c-0.982,0.825-1.899,1.778-3.364,1.7
						c-0.877-0.048-1.292-0.624-1.01-1.448c0.183-0.533,0.458-1.033,0.601-1.771c-0.47,0.14-0.937,0.281-1.447,0.434
						c0.107-0.557,0.428-0.976,0.997-1.095c0.349-0.071,0.733,0.045,1.102,0.077c-0.026,0.308-0.01,0.631-0.098,0.921
						c-0.118,0.39-0.317,0.754-0.485,1.127c-0.255,0.562,0.007,0.943,0.535,0.872c0.735-0.1,1.448-0.388,2.161-0.623
						c0.313-0.103,0.604-0.271,0.905-0.409C294.67,92.504,294.705,92.575,294.738,92.647z"/>
					<path fill-rule="evenodd" clip-rule="evenodd" fill="#3A4963" d="M253.557,78.719c-0.24,0.687-0.512,1.362-0.706,2.061
						c-0.12,0.437-0.206,0.919-0.144,1.359c0.042,0.295,0.321,0.705,0.576,0.779c0.241,0.07,0.618-0.195,0.88-0.386
						c0.152-0.111,0.196-0.367,0.29-0.558c0.128,0.105,0.254,0.21,0.382,0.314c-0.464,0.708-0.885,1.451-1.409,2.111
						c-0.342,0.433-0.75,0.168-1.036-0.173c-0.577-0.688-0.704-1.53-0.444-2.323c0.367-1.127,0.904-2.199,1.369-3.293
						C253.396,78.646,253.477,78.683,253.557,78.719z"/>
					<path fill-rule="evenodd" clip-rule="evenodd" fill="#3A4963" d="M227.41,86.799c0.47-1.34,0.672-1.462,1.915-1.218
						c0.052,0.011,0.113,0.003,0.159,0.025c0.447,0.196,0.89,0.396,1.333,0.596c-0.247,0.499-0.378,1.141-0.769,1.463
						c-0.622,0.51-1.418,0.807-2.142,1.193c-0.04-0.075-0.081-0.149-0.122-0.225c0.622-0.4,1.242-0.801,1.864-1.203
						c-0.021-0.082-0.042-0.161-0.062-0.241C228.882,87.063,228.178,86.936,227.41,86.799z"/>
					<path fill-rule="evenodd" clip-rule="evenodd" fill="#3A4963" d="M258.098,77.714c1.001,0.328,0.619,1.851,1.966,1.788
						c-0.236-0.573-0.435-1.055-0.634-1.537c0.087-0.044,0.176-0.086,0.263-0.129c0.244,0.527,0.598,1.037,0.688,1.589
						c0.051,0.31-0.268,0.895-0.543,0.985c-0.309,0.102-0.755-0.214-0.913-0.269c-0.677,0.148-1.377,0.532-1.705,0.326
						c-0.743-0.467-0.386-1.356-0.428-2.079c0.081-0.014,0.162-0.028,0.244-0.042c0.028,0.253,0,0.533,0.1,0.753
						c0.113,0.25,0.344,0.447,0.522,0.667c0.225-0.257,0.582-0.49,0.638-0.78C258.364,78.618,258.188,78.203,258.098,77.714z"/>
					<path fill-rule="evenodd" clip-rule="evenodd" fill="#3A4963" d="M274.176,84.453c0.389,2.191,0.134,4.541-0.715,5.313
						c0-1.838,0-3.539,0-5.313C273.62,84.453,273.898,84.453,274.176,84.453z"/>
					<path fill-rule="evenodd" clip-rule="evenodd" fill="#3A4963" d="M276.419,81.113c-0.162-0.341-0.238-0.647-0.424-0.851
						c-0.228-0.246-0.551-0.401-0.824-0.608c-0.176-0.134-0.413-0.26-0.479-0.443c-0.057-0.153,0.04-0.491,0.165-0.553
						c0.175-0.088,0.527-0.085,0.651,0.035c0.358,0.35,0.642,0.778,0.971,1.195c0.241-0.602,0.414-1.209,0.717-1.739
						c0.408-0.715,0.981-0.694,1.382,0.007c0.075,0.129,0.074,0.38-0.007,0.494c-0.063,0.087-0.363,0.123-0.457,0.05
						c-0.47-0.359-0.715-0.088-0.881,0.299C276.957,79.649,276.724,80.315,276.419,81.113z"/>
					<path fill-rule="evenodd" clip-rule="evenodd" fill="#3A4963" d="M263.996,76.994c0.307-0.639,0.555-1.246,0.879-1.807
						c0.237-0.407,0.615-0.537,1.03-0.186c0.332,0.282,0.652,0.572,0.141,0.978c-1.143-0.405-1.146-0.406-1.535,0.813
						c-0.138,0.434-0.258,0.873-0.421,1.432c-0.451-0.668-0.622-1.482-1.539-1.528c-0.089-0.006-0.154-0.492-0.229-0.756
						c0.26-0.032,0.623-0.186,0.759-0.071C263.423,76.159,263.665,76.571,263.996,76.994z"/>
					<path fill-rule="evenodd" clip-rule="evenodd" fill="#3A4963" d="M230.019,83.568c0.253-0.633,0.399-1.207,0.704-1.676
						c0.176-0.274,0.658-0.582,0.913-0.519c0.431,0.106,0.676,0.536,0.403,1.046c-1.068-0.376-1.068-0.376-1.439,0.717
						c-0.172,0.507-0.339,1.016-0.555,1.663c-0.167-0.371-0.23-0.651-0.395-0.843c-0.227-0.266-0.536-0.464-0.802-0.697
						c-0.208-0.181-0.458-0.345-0.585-0.573c-0.051-0.089,0.205-0.493,0.279-0.481c0.271,0.042,0.581,0.142,0.769,0.327
						C229.575,82.793,229.742,83.151,230.019,83.568z"/>
					<path fill-rule="evenodd" clip-rule="evenodd" fill="#3A4963" d="M257.496,83.612c0.303-0.718,0.503-1.352,0.837-1.908
						c0.125-0.21,0.638-0.405,0.833-0.313c0.37,0.176,0.735,0.545,0.267,1.029c-0.978-0.386-1-0.381-1.342,0.647
						c-0.185,0.558-0.336,1.127-0.546,1.841c-0.186-0.399-0.261-0.704-0.444-0.916c-0.243-0.282-0.583-0.478-0.855-0.737
						c-0.199-0.19-0.395-0.403-0.512-0.646c-0.038-0.08,0.188-0.409,0.273-0.402c0.25,0.021,0.563,0.088,0.721,0.259
						C257.024,82.792,257.229,83.201,257.496,83.612z"/>
					<path fill-rule="evenodd" clip-rule="evenodd" fill="#3A4963" d="M240.601,80.028c0.284-0.655,0.506-1.244,0.796-1.797
						c0.226-0.433,0.594-0.54,1.024-0.224c0.403,0.298,0.53,0.612,0.089,0.981c-0.873-0.433-0.987-0.398-1.333,0.521
						c-0.209,0.561-0.372,1.14-0.597,1.845c-0.187-0.409-0.277-0.762-0.486-1.019c-0.188-0.23-0.507-0.352-0.763-0.532
						c-0.158-0.11-0.381-0.213-0.43-0.366c-0.056-0.176-0.014-0.525,0.094-0.579c0.18-0.09,0.531-0.095,0.663,0.025
						C239.991,79.188,240.244,79.583,240.601,80.028z"/>
					<path fill-rule="evenodd" clip-rule="evenodd" fill="#3A4963" d="M316.521,87.155c-0.435-0.583-0.47-1.482-1.445-1.425
						c-0.068,0.003-0.204-0.409-0.228-0.636c-0.013-0.123,0.162-0.381,0.231-0.375c0.253,0.026,0.588,0.063,0.73,0.23
						c0.271,0.321,0.432,0.735,0.69,1.209c0.306-0.705,0.528-1.313,0.833-1.879c0.11-0.203,0.434-0.435,0.627-0.411
						c0.255,0.032,0.505,0.282,0.702,0.488c0.077,0.08,0.066,0.338-0.009,0.438c-0.066,0.087-0.315,0.14-0.415,0.083
						c-0.658-0.374-0.89,0.057-1.082,0.551C316.942,85.979,316.747,86.538,316.521,87.155z"/>
					<path fill-rule="evenodd" clip-rule="evenodd" fill="#3A4963" d="M249.756,82.688c-0.868-0.639-1.022-0.599-1.37,0.355
						c-0.211,0.581-0.374,1.178-0.599,1.895c-0.203-0.42-0.321-0.777-0.533-1.062c-0.152-0.204-0.442-0.301-0.656-0.464
						c-0.215-0.164-0.442-0.326-0.596-0.537c-0.049-0.068,0.132-0.428,0.188-0.424c0.276,0.025,0.617,0.049,0.799,0.219
						c0.305,0.285,0.504,0.68,0.81,1.115c0.281-0.727,0.444-1.363,0.771-1.898c0.138-0.225,0.692-0.407,0.933-0.308
						C249.891,81.737,250.144,82.153,249.756,82.688z"/>
					<path fill-rule="evenodd" clip-rule="evenodd" fill="#3A4963" d="M317.105,95.569c-0.179,0.245-0.305,0.613-0.545,0.719
						c-1.504,0.663-3.033,1.265-4.554,1.887c-0.04-0.058-0.079-0.116-0.118-0.174c0.139-0.18,0.24-0.442,0.423-0.526
						c1.542-0.712,3.099-1.393,4.651-2.083C317.011,95.451,317.06,95.51,317.105,95.569z"/>
					<path fill-rule="evenodd" clip-rule="evenodd" fill="#3A4963" d="M246.313,76.674c0.281-0.08,0.671-0.311,0.816-0.205
						c0.281,0.205,0.463,0.583,0.604,0.924c0.052,0.123-0.101,0.36-0.207,0.513c-0.353,0.518-0.813,1.008-1.473,0.767
						c-0.674-0.246-0.716-0.938-0.58-1.54c0.114-0.502,0.388-0.968,0.592-1.449c0.077,0.033,0.153,0.066,0.23,0.1
						c-0.116,0.35-0.313,0.696-0.327,1.05c-0.015,0.357,0.149,0.722,0.236,1.083c0.362-0.091,0.726-0.183,1.089-0.273
						c-0.002-0.114-0.005-0.228-0.008-0.342c-0.301-0.128-0.602-0.256-0.904-0.385C246.36,76.836,246.337,76.755,246.313,76.674z"/>
					<path fill-rule="evenodd" clip-rule="evenodd" fill="#3A4963" d="M308.821,95.201c-0.013,0.91-0.201,0.936-1.05,1.023
						c-1.016,0.105-2.028,0.419-2.998,0.765c-0.668,0.238-1.262,0.684-1.982,0.876c1.008-0.675,1.965-1.454,3.042-1.987
						c0.659-0.328,1.506-0.269,2.263-0.41C308.349,95.42,308.587,95.29,308.821,95.201z"/>
					<path fill-rule="evenodd" clip-rule="evenodd" fill="#3A4963" d="M317.122,89.012c-0.411-0.082-0.694-0.138-1.028-0.203
						c0.154-0.444,0.383-0.731,0.884-0.503c0.45,0.204,0.816,0.493,0.555,1.075c-0.089,0.197-0.171,0.474-0.332,0.548
						c-0.491,0.224-1.09,0.605-1.517,0.482c-0.595-0.172-0.651-0.878-0.45-1.473c0.146-0.428,0.348-0.836,0.522-1.253
						c0.069,0.021,0.137,0.041,0.204,0.061c-0.07,0.287-0.128,0.577-0.216,0.857c-0.139,0.441-0.397,0.953,0.2,1.194
						C316.507,90.023,316.845,89.634,317.122,89.012z"/>
					<path fill-rule="evenodd" clip-rule="evenodd" fill="#3A4963" d="M270.126,88.013c0.263-0.53,0.487-0.979,0.704-1.416
						c1.729,0.458,1.79,0.625,0.77,2.131C271.137,88.504,270.665,88.274,270.126,88.013z"/>
					<path fill-rule="evenodd" clip-rule="evenodd" fill="#3A4963" d="M246.245,89.455c0.566,0.266,1.027,0.482,1.577,0.74
						c-0.27,0.512-0.512,0.978-0.781,1.488c-0.533-0.225-0.999-0.422-1.551-0.653C245.747,90.494,245.975,90.018,246.245,89.455z"/>
					<path fill-rule="evenodd" clip-rule="evenodd" fill="#3A4963" d="M248.261,91.131c0.314-0.546,0.574-1.003,0.858-1.499
						c0.538,0.274,0.991,0.504,1.515,0.771c-0.242,0.502-0.461,0.953-0.719,1.485C249.366,91.638,248.863,91.408,248.261,91.131z"/>
					<path fill-rule="evenodd" clip-rule="evenodd" fill="#3A4963" d="M319.394,96.795c0.704-1.435,0.813-1.463,2.406-0.605
						c-0.244,0.408-0.49,0.813-0.782,1.298C320.463,97.252,319.93,97.024,319.394,96.795z"/>
					<path fill-rule="evenodd" clip-rule="evenodd" fill="#3A4963" d="M258.743,95.637c0.32-0.779,2.717-2.206,4.59-2.683
						c-0.161,0.227-0.272,0.549-0.494,0.664C261.541,94.292,260.218,94.918,258.743,95.637z"/>
					<path fill-rule="evenodd" clip-rule="evenodd" fill="#3A4963" d="M271.66,74.64c-0.197,0.741-0.353,1.316-0.503,1.894
						c-0.148,0.573-0.286,1.145,0.948,1.085c-0.387,0.415-0.558,0.752-0.78,0.788c-0.201,0.033-0.542-0.205-0.675-0.416
						C270.084,77.092,270.463,75.757,271.66,74.64z"/>
					<path fill-rule="evenodd" clip-rule="evenodd" fill="#3A4963" d="M233.967,97.958c0.097-0.685,2.358-2.277,4.391-3.135
						c-0.188,0.346-0.248,0.641-0.424,0.75C236.644,96.378,235.329,97.145,233.967,97.958z"/>
					<path fill-rule="evenodd" clip-rule="evenodd" fill="#3A4963" d="M233.101,83.542c-0.181,0.668-0.352,1.181-0.453,1.708
						c-0.083,0.431-0.283,0.939,0.412,1.126c0.091,0.025,0.209,0.377,0.155,0.438c-0.138,0.159-0.482,0.379-0.541,0.33
						c-0.289-0.241-0.671-0.533-0.728-0.859C231.765,85.232,232.112,84.327,233.101,83.542z"/>
					<path fill-rule="evenodd" clip-rule="evenodd" fill="#3A4963" d="M257.493,87.866c-0.208,0.796-0.415,1.439-0.526,2.1
						c-0.036,0.218,0.143,0.493,0.276,0.71c0.104,0.171,0.339,0.272,0.412,0.447c0.031,0.074-0.195,0.366-0.316,0.373
						c-0.248,0.014-0.604-0.018-0.73-0.177c-0.181-0.234-0.26-0.592-0.275-0.904C256.286,89.4,256.676,88.521,257.493,87.866z"/>
					<path fill-rule="evenodd" clip-rule="evenodd" fill="#3A4963" d="M295.692,79.645c-0.165,0.633-0.311,1.179-0.449,1.728
						c-0.153,0.591-0.161,1.112,0.899,1.188c-0.342,0.349-0.548,0.72-0.732,0.709c-0.253-0.014-0.595-0.268-0.712-0.51
						C294.252,81.84,294.716,80.382,295.692,79.645z"/>
					<path fill-rule="evenodd" clip-rule="evenodd" fill="#3A4963" d="M287.403,91.285c-0.137,0.522-0.285,1.04-0.402,1.566
						c-0.132,0.595-0.321,1.24,0.767,1.23c0,0.071,0,0.143,0,0.214c-0.243,0.167-0.575,0.526-0.713,0.462
						c-0.298-0.138-0.665-0.467-0.705-0.759C286.207,92.958,286.539,92.025,287.403,91.285z"/>
					<path fill-rule="evenodd" clip-rule="evenodd" fill="#3A4963" d="M269.24,91.768c-0.254,0.174-0.605,0.548-0.742,0.483
						c-0.285-0.138-0.597-0.484-0.653-0.791c-0.208-1.126,0.168-2.071,1.06-2.761c-0.162,0.598-0.267,1.094-0.436,1.569
						c-0.241,0.678-0.231,1.192,0.753,1.237C269.227,91.592,269.233,91.68,269.24,91.768z"/>
					<path fill-rule="evenodd" clip-rule="evenodd" fill="#3A4963" d="M234.453,90.234c-0.261,0.812-2.929,2.493-4.389,2.937
						c-0.038-0.059-0.075-0.117-0.113-0.177C231.399,92.106,232.848,91.219,234.453,90.234z"/>
					<path fill-rule="evenodd" clip-rule="evenodd" fill="#3A4963" d="M304.073,84.061c-0.161,0.483-0.309,0.973-0.488,1.449
						c-0.252,0.676-0.328,1.249,0.732,1.315c0.001,0.068,0.004,0.136,0.006,0.203c-0.223,0.164-0.51,0.502-0.654,0.451
						c-0.286-0.104-0.654-0.394-0.706-0.661C302.75,85.708,303.086,84.743,304.073,84.061z"/>
					<path fill-rule="evenodd" clip-rule="evenodd" fill="#3A4963" d="M289.938,83.473c-0.146,0.632-0.278,1.208-0.409,1.783
						c-0.092,0.399-0.146,0.757,0.422,0.872c0.114,0.024,0.168,0.346,0.249,0.531c-0.202,0.088-0.451,0.294-0.601,0.237
						c-0.225-0.084-0.442-0.322-0.553-0.548C288.687,85.614,289.166,84.049,289.938,83.473z"/>
					<path fill-rule="evenodd" clip-rule="evenodd" fill="#3A4963" d="M251.995,88.89c0.99,1.016,1.17,2.038,0.86,3.188
						C252.874,91.003,251.676,90.247,251.995,88.89z"/>
					<path fill-rule="evenodd" clip-rule="evenodd" fill="#3A4963" d="M240.286,87.615c0.147,0.875-1.09,1.79,0.453,2.462
						c-0.273,0.182-0.5,0.443-0.645,0.404c-0.217-0.059-0.497-0.307-0.536-0.515C239.389,89.101,239.523,88.292,240.286,87.615z"/>
					<path fill-rule="evenodd" clip-rule="evenodd" fill="#3A4963" d="M294.738,88.279c0.312,0.71-1.12,1.598,0.355,2.309
						c-0.218,0.16-0.433,0.429-0.571,0.395c-0.214-0.055-0.457-0.285-0.542-0.497C293.728,89.847,294.133,88.767,294.738,88.279z"/>
					<path fill-rule="evenodd" clip-rule="evenodd" fill="#3A4963" d="M243.233,88.484c-0.084,0.334-0.167,0.67-0.253,1.003
						c-0.107,0.417-0.332,0.859,0.324,1.065c0.055,0.018,0.01,0.352,0.011,0.538c-0.218-0.006-0.595,0.051-0.627-0.028
						c-0.143-0.359-0.302-0.78-0.239-1.139c0.092-0.524,0.371-1.016,0.568-1.521C243.089,88.43,243.16,88.457,243.233,88.484z"/>
					<path fill-rule="evenodd" clip-rule="evenodd" fill="#3A4963" d="M244.673,82.428c0.208,0.75-0.895,1.665,0.392,2.371
						c-0.167,0.152-0.354,0.412-0.437,0.381c-0.232-0.084-0.507-0.247-0.608-0.455C243.709,84.09,244.08,82.925,244.673,82.428z"/>
					<path fill-rule="evenodd" clip-rule="evenodd" fill="#3A4963" d="M279.628,81.905c0.216,0.813-1.11,1.761,0.534,2.39
						c-0.323,0.199-0.586,0.479-0.747,0.43c-0.225-0.068-0.496-0.364-0.535-0.598C278.746,83.309,278.979,82.569,279.628,81.905z"/>
					<path fill-rule="evenodd" clip-rule="evenodd" fill="#3A4963" d="M298.34,92.825c0.782-0.543,1.565-1.086,2.349-1.628
						c0.055,0.077,0.108,0.154,0.162,0.231c-0.789,0.536-1.577,1.071-2.367,1.607C298.437,92.965,298.388,92.895,298.34,92.825z"/>
				</g>
			</g>
			<text transform="matrix(1.0615 0 0 1 205.5264 143.9092)"><tspan x="0" y="0" fill="#3A4963" font-family="'SakkalMajalla'" font-size="9.364">Pengiran Radzuan bin Pengiran Haji Mahmud</tspan><tspan x="27.806" y="12" fill="#3A4963" font-family="'SakkalMajalla'" font-size="9.364">Mahani binti Haji Othman</tspan><tspan x="-8.26" y="24" fill="#3A4963" font-family="'SakkalMajalla'" font-size="9.364">Dayangku Rabiatuladawiah binti Pengiran Radzuan</tspan><tspan x="-16.357" y="36" fill="#3A4963" font-family="'SakkalMajalla'" font-size="9.364">Dayangku Rabiatul Amal Najihah binti Pengiran Radzuan</tspan><tspan x="-1.737" y="56" fill="#3A4963" font-family="'SakkalMajalla'" font-size="9.364">Dengan penuh hormat dan takzim menjunjung</tspan><tspan x="-48.935" y="70.982" fill="#3A4963" font-family="'SakkalMajalla'" font-size="9.364">Pengiran berangkat/mempersilakan Pehin/Dato/Datin/Awang/Dayang hadir ke</tspan><tspan x="-70.287" y="85.965" fill="#3A4963" font-family="'SakkalMajalla'" font-size="9.364">Majlis Akad Nikah dan Bersanding bagi anakanda/adinda/kekanda Abis Peramba/Kaola/kami :</tspan></text>
			<text transform="matrix(1.0615 0 0 1 169.4478 497.8672)"><tspan x="0" y="0" fill="#3A4963" font-family="'SakkalMajalla'" font-size="9">Diatas kesudian Pengiran berangkat/Pehin/Dato/Datin/Awang/Dayang </tspan><tspan x="8.459" y="13" fill="#3A4963" font-family="'SakkalMajalla'" font-size="9">hadir ke Majlis itu nanti, terlebih dahulu abis peramba/kaola/kami</tspan><tspan x="35.855" y="26" fill="#3A4963" font-family="'SakkalMajalla'" font-size="9"> sekeluarga mengucapkan ribuan terima kasih.</tspan></text>
			<g>
				<text transform="matrix(1.0615 0 0 1 239.0313 110.3882)"><tspan x="0" y="0" fill="#3A4963" font-family="'SakkalMajallaBold'" font-size="10">YA QADHI AL-HAJAT</tspan><tspan x="8.279" y="12" fill="#3A4963" font-family="'SakkalMajallaBold'" font-size="10">Walimatul Urus</tspan></text>
			</g>
			<rect x="65.426" y="253.118" fill-rule="evenodd" clip-rule="evenodd" fill="none" width="419.149" height="74.527"/>
			<text transform="matrix(1.0615 0 0 1 88.4521 262.1895)"><tspan x="0" y="0" fill="#3A4963" font-family="'SakkalMajallaBold'" font-size="16" letter-spacing="0.942">Awangku Kamarulariffin bin Pengiran Radzuan</tspan><tspan x="162.527" y="22" fill="#3A4963" font-family="'SakkalMajalla'" font-size="10">dengan</tspan><tspan x="49.296" y="46" fill="#3A4963" font-family="'SakkalMajallaBold'" font-size="16" letter-spacing="0.942">Siti NorSoleha binti Haji Mohd Sah</tspan></text>
			<g>
				<g>
					<rect x="143.039" y="327.885" fill="none" width="133.615" height="12.496"/>
					<text transform="matrix(1.0615 0 0 1 198.2871 334.6865)" fill="#3A4963" font-family="'SakkalMajallaBold'" font-size="12">Pada</text>
				</g>
				<g>
					<rect x="143.039" y="344.848" fill="none" width="133.615" height="42.992"/>
					<text transform="matrix(1.0615 0 0 1 192.4014 349.9229)"><tspan x="0" y="0" fill="#3A4963" font-family="'SakkalMajalla'" font-size="9">Hari Ahad </tspan><tspan x="-14.7" y="14" fill="#3A4963" font-family="'SakkalMajalla'" font-size="9">28 Syaaban 1442H</tspan><tspan x="-9.527" y="28" fill="#3A4963" font-family="'SakkalMajalla'" font-size="9">11 April 2021M</tspan></text>
				</g>
				<g>
					<rect x="276.654" y="327.01" fill="none" width="133.615" height="12.496"/>
					<text transform="matrix(1.0615 0 0 1 311.3691 333.8115)" fill="#3A4963" font-family="'SakkalMajallaBold'" font-size="12">Bertempat di</text>
				</g>
				<g>
					<rect x="276.654" y="344.848" fill="none" width="133.615" height="42.992"/>
					<text transform="matrix(1.0615 0 0 1 316.9932 349.9229)"><tspan x="0" y="0" fill="#3A4963" font-family="'SakkalMajalla'" font-size="9">118 Residence,</tspan><tspan x="-3.979" y="14" fill="#3A4963" font-family="'SakkalMajalla'" font-size="9">Spg 118-12-9-11,</tspan><tspan x="8.988" y="28" fill="#3A4963" font-family="'SakkalMajalla'" font-size="9">Kg Kiulap</tspan></text>
				</g>
				
					<line fill-rule="evenodd" clip-rule="evenodd" fill="none" stroke="#3A4963" stroke-width="1.5" stroke-linecap="round" stroke-linejoin="round" stroke-miterlimit="10" x1="276.654" y1="345.057" x2="276.654" y2="376.84"/>
			</g>
			<g>
				<rect x="73.229" y="399.869" fill="none" width="400.845" height="16.205"/>
				<text transform="matrix(1.0615 0 0 1 235.1772 406.6738)" fill="#3A4963" font-family="'SakkalMajallaBold'" font-size="12">Aturcara Majlis</text>
			</g>
			<g>
				<g>
					<rect x="73.23" y="427.996" fill="none" width="200.434" height="59.871"/>
					<text transform="matrix(1.0615 0 0 1 172.5493 433.667)"><tspan x="0" y="0" fill="#3A4963" font-family="'SakkalMajallaBold'" font-size="10">10.30 Pagi - 11.30 Pagi  :</tspan><tspan x="48.189" y="10" fill="#3A4963" font-family="'SakkalMajallaBold'" font-size="10">11.40 Pagi  :</tspan></text>
				</g>
				<g>
					<rect x="282.664" y="427.996" fill="none" width="191.411" height="67.488"/>
					<text transform="matrix(1.0615 0 0 1 282.6641 433.667)"><tspan x="0" y="0" fill="#3A4963" font-family="'SakkalMajallaBold'" font-size="10">Menerima Jemputan</tspan><tspan x="0" y="10" fill="#3A4963" font-family="'SakkalMajallaBold'" font-size="10">Majlis Akad Nikah di mulakan</tspan><tspan x="0" y="20" fill="#3A4963" font-family="'SakkalMajallaBold'" font-size="10">Doa Selamat</tspan><tspan x="0" y="30" fill="#3A4963" font-family="'SakkalMajallaBold'" font-size="10">Majlis Bersanding</tspan><tspan x="0" y="40" fill="#3A4963" font-family="'SakkalMajallaBold'" font-size="10">Menikmati Jamuan Makan </tspan></text>
				</g>
			</g>
			<g>
				<g>
					<path fill-rule="evenodd" clip-rule="evenodd" fill="#3A4963" d="M389.487,405.941c-1.337-0.873-2.622-1.67-3.843-2.531
						c-0.491-0.344-0.805-0.281-1.248,0.023c-1.592,1.098-3.201,2.176-4.827,3.236c-0.257,0.168-0.621,0.289-0.94,0.289
						c-17.192,0.014-34.384,0.014-51.577,0.012c-0.104,0-0.21-0.02-0.392-0.037c0-0.289,0-0.572,0-0.953c14.146,0,28.283,0,42.506,0
						c-0.818-1.361-2.025-1.688-3.594-1.676c-9.008,0.053-18.012,0.041-27.018,0.055c-0.734,0.002-1.527-0.16-2.019,0.482
						c-0.968-0.844-1.907-1.662-2.829-2.463c0.88-0.768,1.804-1.572,2.602-2.27c0.706,0.102,1.33,0.271,1.954,0.271
						c9.28,0.018,18.561-0.023,27.839,0.049c1.467,0.012,2.254-0.57,3.127-1.559c-14.264,0-28.393,0-42.582,0
						c0-0.371,0-0.639,0-0.963c0.201-0.023,0.405-0.064,0.609-0.064c17.109-0.004,34.223-0.006,51.334,0.01
						c0.365,0,0.785,0.154,1.084,0.348c1.599,1.02,3.189,2.053,4.734,3.135c0.531,0.369,0.873,0.332,1.373-0.018
						c1.205-0.846,2.459-1.643,3.722-2.479c1.229,0.861,2.435,1.68,3.603,2.531c0.428,0.309,0.719,0.316,1.163-0.006
						c1.503-1.09,3.037-2.148,4.589-3.184c0.29-0.193,0.719-0.328,1.084-0.328c17.111-0.018,34.223-0.016,51.338-0.014
						c0.232,0,0.466,0.031,0.739,0.049c0,0.311,0,0.58,0,0.922c-14.386,0-28.749,0-43.146,0c0.418,0.943,1.45,1.584,2.474,1.584
						c9.493-0.002,18.987,0.002,28.482-0.014c0.573,0,1.144-0.158,1.845-0.264c0.757,0.666,1.672,1.475,2.592,2.287
						c-0.901,0.76-1.855,1.563-2.684,2.258c-0.662-0.104-1.306-0.289-1.949-0.291c-9.549-0.023-19.098-0.025-28.646-0.018
						c-0.289,0-0.621,0.119-0.859,0.268c-0.52,0.322-0.988,0.701-1.479,1.055c0.063,0.088,0.126,0.176,0.188,0.264
						c14.369,0,28.738,0,43.164,0c0,0.367,0,0.635,0,0.994c-0.257,0.012-0.539,0.035-0.82,0.035
						c-17.033,0.002-34.063,0.006-51.096-0.014c-0.438,0-0.948-0.158-1.297-0.389c-1.467-0.971-2.904-1.982-4.316-3.012
						c-0.57-0.414-0.977-0.447-1.568,0.01C391.828,404.396,390.656,405.135,389.487,405.941z M370.554,405.773
						c0.054,0.068,0.11,0.137,0.163,0.203c2.277,0,4.552-0.039,6.826,0.02c0.865,0.023,1.541-0.186,2.188-0.637
						c1-0.699,2.022-1.371,3.037-2.053c0.416-0.277,0.835-0.553,1.27-0.842c-0.121-0.133-0.172-0.219-0.252-0.273
						c-1.596-1.064-3.188-2.133-4.799-3.18c-0.192-0.123-0.496-0.164-0.75-0.164c-2.36-0.014-4.723-0.01-7.08-0.006
						c-0.162,0.002-0.324,0.055-0.693,0.117c1.417,1.189,2.703,2.268,4.165,3.492C373.217,403.602,371.885,404.688,370.554,405.773z
						 M403.314,402.672c0.027-0.156,0.053-0.314,0.08-0.471c1.299-1.086,2.594-2.172,3.945-3.303
						c-0.172-0.027-0.268-0.057-0.365-0.057c-2.252-0.016-4.503-0.033-6.756-0.029c-0.244,0.002-0.535,0.082-0.728,0.211
						c-1.44,0.967-2.864,1.951-4.286,2.939c-0.176,0.123-0.309,0.295-0.512,0.496c1.594,1.107,3.123,2.193,4.692,3.24
						c0.263,0.178,0.674,0.254,1.021,0.266c1.203,0.037,2.409,0.027,3.613,0.031c1.082,0.004,2.163,0,3.246,0
						c0.027-0.066,0.055-0.131,0.082-0.197C406.002,404.756,404.66,403.715,403.314,402.672z M338.407,403.301
						c9.353,0,18.535,0,27.847,0c-0.361-0.361-0.63-0.631-0.914-0.918c0.311-0.299,0.602-0.576,0.973-0.934
						c-9.388,0-18.604,0-27.957,0c0.385,0.383,0.674,0.67,0.969,0.963C339.029,402.699,338.771,402.949,338.407,403.301z
						 M439.639,401.443c-9.393,0-18.59,0-27.949,0c0.377,0.387,0.658,0.674,0.955,0.979c-0.304,0.287-0.578,0.545-0.908,0.859
						c9.324,0,18.5,0,27.818,0c-0.365-0.352-0.628-0.604-0.914-0.877C438.941,402.115,439.224,401.844,439.639,401.443z
						 M369.945,399.93c-1.009,0.83-1.988,1.635-3.018,2.484c1.032,0.885,1.994,1.705,2.951,2.523
						c0.975-0.855,1.926-1.689,2.865-2.514C371.793,401.576,370.85,400.736,369.945,399.93z M405.295,402.395
						c0.924,0.854,1.852,1.711,2.77,2.561c1.02-0.873,1.965-1.682,2.891-2.473c-0.999-0.857-1.963-1.682-2.87-2.459
						C407.178,400.795,406.209,401.619,405.295,402.395z M386.039,402.414c1.109,0.73,2.049,1.371,3.021,1.971
						c0.18,0.109,0.587,0.146,0.744,0.045c0.977-0.633,1.914-1.314,2.928-2.025c-1.025-0.721-1.994-1.408-2.982-2.076
						c-0.111-0.076-0.39-0.1-0.494-0.031C388.209,400.965,387.182,401.656,386.039,402.414z"/>
				</g>
			</g>
			<g>
				<g>
					<path fill-rule="evenodd" clip-rule="evenodd" fill="#3A4963" d="M160.267,406.949c-1.337-0.873-2.622-1.67-3.843-2.531
						c-0.491-0.344-0.805-0.281-1.248,0.023c-1.592,1.098-3.201,2.176-4.827,3.236c-0.257,0.168-0.621,0.289-0.94,0.289
						c-17.192,0.014-34.384,0.014-51.577,0.012c-0.104,0-0.21-0.02-0.392-0.037c0-0.289,0-0.572,0-0.953c14.146,0,28.283,0,42.506,0
						c-0.818-1.361-2.025-1.688-3.594-1.676c-9.008,0.053-18.012,0.041-27.018,0.055c-0.734,0.002-1.527-0.16-2.019,0.482
						c-0.968-0.844-1.907-1.662-2.829-2.463c0.88-0.768,1.804-1.572,2.602-2.27c0.706,0.102,1.33,0.271,1.954,0.271
						c9.28,0.018,18.561-0.023,27.839,0.049c1.467,0.012,2.254-0.57,3.127-1.559c-14.264,0-28.393,0-42.582,0
						c0-0.371,0-0.639,0-0.963c0.201-0.023,0.405-0.064,0.609-0.064c17.109-0.004,34.223-0.006,51.334,0.01
						c0.365,0,0.785,0.154,1.084,0.348c1.599,1.02,3.189,2.053,4.734,3.135c0.531,0.369,0.873,0.332,1.373-0.018
						c1.205-0.846,2.459-1.643,3.722-2.479c1.229,0.861,2.435,1.68,3.603,2.531c0.428,0.309,0.719,0.316,1.163-0.006
						c1.503-1.09,3.037-2.148,4.589-3.184c0.29-0.193,0.719-0.328,1.084-0.328c17.111-0.018,34.223-0.016,51.338-0.014
						c0.232,0,0.466,0.031,0.739,0.049c0,0.311,0,0.58,0,0.922c-14.386,0-28.749,0-43.146,0c0.418,0.943,1.45,1.584,2.474,1.584
						c9.493-0.002,18.987,0.002,28.482-0.014c0.573,0,1.144-0.158,1.845-0.264c0.757,0.666,1.672,1.475,2.592,2.287
						c-0.901,0.76-1.855,1.563-2.684,2.258c-0.662-0.104-1.306-0.289-1.949-0.291c-9.549-0.023-19.098-0.025-28.646-0.018
						c-0.289,0-0.621,0.119-0.859,0.268c-0.52,0.322-0.988,0.701-1.479,1.055c0.063,0.088,0.126,0.176,0.188,0.264
						c14.369,0,28.738,0,43.164,0c0,0.367,0,0.635,0,0.994c-0.257,0.012-0.539,0.035-0.82,0.035
						c-17.033,0.002-34.063,0.006-51.096-0.014c-0.438,0-0.948-0.158-1.297-0.389c-1.467-0.971-2.904-1.982-4.316-3.012
						c-0.57-0.414-0.977-0.447-1.568,0.01C162.607,405.404,161.436,406.143,160.267,406.949z M141.333,406.781
						c0.054,0.068,0.11,0.137,0.163,0.203c2.277,0,4.552-0.039,6.826,0.02c0.865,0.023,1.541-0.186,2.188-0.637
						c1-0.699,2.022-1.371,3.037-2.053c0.416-0.277,0.835-0.553,1.27-0.842c-0.121-0.133-0.172-0.219-0.252-0.273
						c-1.596-1.064-3.188-2.133-4.799-3.18c-0.192-0.123-0.496-0.164-0.75-0.164c-2.36-0.014-4.723-0.01-7.08-0.006
						c-0.162,0.002-0.324,0.055-0.693,0.117c1.417,1.189,2.703,2.268,4.165,3.492C143.996,404.609,142.664,405.695,141.333,406.781z
						 M174.094,403.68c0.027-0.156,0.053-0.314,0.08-0.471c1.299-1.086,2.594-2.172,3.945-3.303
						c-0.172-0.027-0.268-0.057-0.365-0.057c-2.252-0.016-4.503-0.033-6.756-0.029c-0.244,0.002-0.535,0.082-0.728,0.211
						c-1.44,0.967-2.864,1.951-4.286,2.939c-0.176,0.123-0.309,0.295-0.512,0.496c1.594,1.107,3.123,2.193,4.692,3.24
						c0.263,0.178,0.674,0.254,1.021,0.266c1.203,0.037,2.409,0.027,3.613,0.031c1.082,0.004,2.163,0,3.246,0
						c0.027-0.066,0.055-0.131,0.082-0.197C176.781,405.764,175.439,404.723,174.094,403.68z M109.187,404.309
						c9.353,0,18.535,0,27.847,0c-0.361-0.361-0.63-0.631-0.914-0.918c0.311-0.299,0.602-0.576,0.973-0.934
						c-9.388,0-18.604,0-27.957,0c0.385,0.383,0.674,0.67,0.969,0.963C109.809,403.707,109.551,403.957,109.187,404.309z
						 M210.418,402.451c-9.393,0-18.59,0-27.949,0c0.377,0.387,0.658,0.674,0.955,0.979c-0.304,0.287-0.578,0.545-0.908,0.859
						c9.324,0,18.5,0,27.818,0c-0.365-0.352-0.628-0.604-0.914-0.877C209.721,403.123,210.003,402.852,210.418,402.451z
						 M140.725,400.938c-1.009,0.83-1.988,1.635-3.018,2.484c1.032,0.885,1.994,1.705,2.951,2.523
						c0.975-0.855,1.926-1.689,2.865-2.514C142.572,402.584,141.629,401.744,140.725,400.938z M176.074,403.402
						c0.924,0.854,1.852,1.711,2.77,2.561c1.02-0.873,1.965-1.682,2.891-2.473c-0.999-0.857-1.963-1.682-2.87-2.459
						C177.957,401.803,176.988,402.627,176.074,403.402z M156.818,403.422c1.109,0.73,2.049,1.371,3.021,1.971
						c0.18,0.109,0.587,0.146,0.744,0.045c0.977-0.633,1.914-1.314,2.928-2.025c-1.025-0.721-1.994-1.408-2.982-2.076
						c-0.111-0.076-0.39-0.1-0.494-0.031C158.988,401.973,157.961,402.664,156.818,403.422z"/>
				</g>
			</g>
		</g>
	</g>
	<rect x="53.815" y="47.633" fill="none" stroke="#B1A360" stroke-miterlimit="10" width="442.37" height="504.775"/>
</g>
</svg>
